<svg xmlns="http://www.w3.org/2000/svg" width="319" height="272"
     viewBox="0 0 319 272" role="img" aria-label="Languages by use, most used first: Kotlin, JavaScript, Go, TypeScript, Python, Shell, Swift, C, Objective-C, C++">
  <style>
    text {
      font-family: ui-monospace, SFMono-Regular, "SF Mono", Menlo, Consolas, monospace;
      font-size: 13px;
    }
    .name, .prompt { fill: #8b949e; }
    .pct { fill: #8b949e; text-anchor: end; }
    .on { fill: #58a6ff; }
    .off { fill: #58a6ff; opacity: 0.20; }
    @media (prefers-color-scheme: light) {
      .name, .pct, .prompt { fill: #57606a; }
      .off { opacity: 0.22; }
    }
  </style>
  <text class="prompt" x="1" y="16">$ ls -l ~/languages</text>
  <text class="name" x="1" y="44">Kotlin</text>
  <rect class="on" x="102.0" y="36" width="7" height="9" rx="1" /><rect class="on" x="111.6" y="36" width="7" height="9" rx="1" /><rect class="on" x="121.2" y="36" width="7" height="9" rx="1" /><rect class="on" x="130.8" y="36" width="7" height="9" rx="1" /><rect class="on" x="140.4" y="36" width="7" height="9" rx="1" /><rect class="on" x="150.0" y="36" width="7" height="9" rx="1" /><rect class="on" x="159.6" y="36" width="7" height="9" rx="1" /><rect class="on" x="169.2" y="36" width="7" height="9" rx="1" /><rect class="on" x="178.8" y="36" width="7" height="9" rx="1" /><rect class="on" x="188.4" y="36" width="7" height="9" rx="1" /><rect class="on" x="198.0" y="36" width="7" height="9" rx="1" /><rect class="on" x="207.6" y="36" width="7" height="9" rx="1" /><rect class="on" x="217.2" y="36" width="7" height="9" rx="1" /><rect class="on" x="226.8" y="36" width="7" height="9" rx="1" /><rect class="on" x="236.4" y="36" width="7" height="9" rx="1" /><rect class="on" x="246.0" y="36" width="7" height="9" rx="1" /><rect class="on" x="255.6" y="36" width="7" height="9" rx="1" /><rect class="on" x="265.2" y="36" width="7" height="9" rx="1" /><rect class="on" x="274.8" y="36" width="7" height="9" rx="1" /><rect class="on" x="284.4" y="36" width="7" height="9" rx="1" /><rect class="on" x="294.0" y="36" width="7" height="9" rx="1" /><rect class="on" x="303.6" y="36" width="7" height="9" rx="1" />
  <text class="name" x="1" y="66">JavaScript</text>
  <rect class="on" x="102.0" y="58" width="7" height="9" rx="1" /><rect class="on" x="111.6" y="58" width="7" height="9" rx="1" /><rect class="on" x="121.2" y="58" width="7" height="9" rx="1" /><rect class="on" x="130.8" y="58" width="7" height="9" rx="1" /><rect class="on" x="140.4" y="58" width="7" height="9" rx="1" /><rect class="on" x="150.0" y="58" width="7" height="9" rx="1" /><rect class="on" x="159.6" y="58" width="7" height="9" rx="1" /><rect class="on" x="169.2" y="58" width="7" height="9" rx="1" /><rect class="on" x="178.8" y="58" width="7" height="9" rx="1" /><rect class="on" x="188.4" y="58" width="7" height="9" rx="1" /><rect class="on" x="198.0" y="58" width="7" height="9" rx="1" /><rect class="on" x="207.6" y="58" width="7" height="9" rx="1" /><rect class="on" x="217.2" y="58" width="7" height="9" rx="1" /><rect class="on" x="226.8" y="58" width="7" height="9" rx="1" /><rect class="on" x="236.4" y="58" width="7" height="9" rx="1" /><rect class="off" x="246.0" y="58" width="7" height="9" rx="1" /><rect class="off" x="255.6" y="58" width="7" height="9" rx="1" /><rect class="off" x="265.2" y="58" width="7" height="9" rx="1" /><rect class="off" x="274.8" y="58" width="7" height="9" rx="1" /><rect class="off" x="284.4" y="58" width="7" height="9" rx="1" /><rect class="off" x="294.0" y="58" width="7" height="9" rx="1" /><rect class="off" x="303.6" y="58" width="7" height="9" rx="1" />
  <text class="name" x="1" y="88">Go</text>
  <rect class="on" x="102.0" y="80" width="7" height="9" rx="1" /><rect class="on" x="111.6" y="80" width="7" height="9" rx="1" /><rect class="on" x="121.2" y="80" width="7" height="9" rx="1" /><rect class="on" x="130.8" y="80" width="7" height="9" rx="1" /><rect class="on" x="140.4" y="80" width="7" height="9" rx="1" /><rect class="on" x="150.0" y="80" width="7" height="9" rx="1" /><rect class="on" x="159.6" y="80" width="7" height="9" rx="1" /><rect class="on" x="169.2" y="80" width="7" height="9" rx="1" /><rect class="on" x="178.8" y="80" width="7" height="9" rx="1" /><rect class="on" x="188.4" y="80" width="7" height="9" rx="1" /><rect class="off" x="198.0" y="80" width="7" height="9" rx="1" /><rect class="off" x="207.6" y="80" width="7" height="9" rx="1" /><rect class="off" x="217.2" y="80" width="7" height="9" rx="1" /><rect class="off" x="226.8" y="80" width="7" height="9" rx="1" /><rect class="off" x="236.4" y="80" width="7" height="9" rx="1" /><rect class="off" x="246.0" y="80" width="7" height="9" rx="1" /><rect class="off" x="255.6" y="80" width="7" height="9" rx="1" /><rect class="off" x="265.2" y="80" width="7" height="9" rx="1" /><rect class="off" x="274.8" y="80" width="7" height="9" rx="1" /><rect class="off" x="284.4" y="80" width="7" height="9" rx="1" /><rect class="off" x="294.0" y="80" width="7" height="9" rx="1" /><rect class="off" x="303.6" y="80" width="7" height="9" rx="1" />
  <text class="name" x="1" y="110">TypeScript</text>
  <rect class="on" x="102.0" y="102" width="7" height="9" rx="1" /><rect class="on" x="111.6" y="102" width="7" height="9" rx="1" /><rect class="on" x="121.2" y="102" width="7" height="9" rx="1" /><rect class="on" x="130.8" y="102" width="7" height="9" rx="1" /><rect class="on" x="140.4" y="102" width="7" height="9" rx="1" /><rect class="on" x="150.0" y="102" width="7" height="9" rx="1" /><rect class="on" x="159.6" y="102" width="7" height="9" rx="1" /><rect class="on" x="169.2" y="102" width="7" height="9" rx="1" /><rect class="off" x="178.8" y="102" width="7" height="9" rx="1" /><rect class="off" x="188.4" y="102" width="7" height="9" rx="1" /><rect class="off" x="198.0" y="102" width="7" height="9" rx="1" /><rect class="off" x="207.6" y="102" width="7" height="9" rx="1" /><rect class="off" x="217.2" y="102" width="7" height="9" rx="1" /><rect class="off" x="226.8" y="102" width="7" height="9" rx="1" /><rect class="off" x="236.4" y="102" width="7" height="9" rx="1" /><rect class="off" x="246.0" y="102" width="7" height="9" rx="1" /><rect class="off" x="255.6" y="102" width="7" height="9" rx="1" /><rect class="off" x="265.2" y="102" width="7" height="9" rx="1" /><rect class="off" x="274.8" y="102" width="7" height="9" rx="1" /><rect class="off" x="284.4" y="102" width="7" height="9" rx="1" /><rect class="off" x="294.0" y="102" width="7" height="9" rx="1" /><rect class="off" x="303.6" y="102" width="7" height="9" rx="1" />
  <text class="name" x="1" y="132">Python</text>
  <rect class="on" x="102.0" y="124" width="7" height="9" rx="1" /><rect class="on" x="111.6" y="124" width="7" height="9" rx="1" /><rect class="on" x="121.2" y="124" width="7" height="9" rx="1" /><rect class="on" x="130.8" y="124" width="7" height="9" rx="1" /><rect class="on" x="140.4" y="124" width="7" height="9" rx="1" /><rect class="on" x="150.0" y="124" width="7" height="9" rx="1" /><rect class="on" x="159.6" y="124" width="7" height="9" rx="1" /><rect class="off" x="169.2" y="124" width="7" height="9" rx="1" /><rect class="off" x="178.8" y="124" width="7" height="9" rx="1" /><rect class="off" x="188.4" y="124" width="7" height="9" rx="1" /><rect class="off" x="198.0" y="124" width="7" height="9" rx="1" /><rect class="off" x="207.6" y="124" width="7" height="9" rx="1" /><rect class="off" x="217.2" y="124" width="7" height="9" rx="1" /><rect class="off" x="226.8" y="124" width="7" height="9" rx="1" /><rect class="off" x="236.4" y="124" width="7" height="9" rx="1" /><rect class="off" x="246.0" y="124" width="7" height="9" rx="1" /><rect class="off" x="255.6" y="124" width="7" height="9" rx="1" /><rect class="off" x="265.2" y="124" width="7" height="9" rx="1" /><rect class="off" x="274.8" y="124" width="7" height="9" rx="1" /><rect class="off" x="284.4" y="124" width="7" height="9" rx="1" /><rect class="off" x="294.0" y="124" width="7" height="9" rx="1" /><rect class="off" x="303.6" y="124" width="7" height="9" rx="1" />
  <text class="name" x="1" y="154">Shell</text>
  <rect class="on" x="102.0" y="146" width="7" height="9" rx="1" /><rect class="on" x="111.6" y="146" width="7" height="9" rx="1" /><rect class="on" x="121.2" y="146" width="7" height="9" rx="1" /><rect class="on" x="130.8" y="146" width="7" height="9" rx="1" /><rect class="on" x="140.4" y="146" width="7" height="9" rx="1" /><rect class="off" x="150.0" y="146" width="7" height="9" rx="1" /><rect class="off" x="159.6" y="146" width="7" height="9" rx="1" /><rect class="off" x="169.2" y="146" width="7" height="9" rx="1" /><rect class="off" x="178.8" y="146" width="7" height="9" rx="1" /><rect class="off" x="188.4" y="146" width="7" height="9" rx="1" /><rect class="off" x="198.0" y="146" width="7" height="9" rx="1" /><rect class="off" x="207.6" y="146" width="7" height="9" rx="1" /><rect class="off" x="217.2" y="146" width="7" height="9" rx="1" /><rect class="off" x="226.8" y="146" width="7" height="9" rx="1" /><rect class="off" x="236.4" y="146" width="7" height="9" rx="1" /><rect class="off" x="246.0" y="146" width="7" height="9" rx="1" /><rect class="off" x="255.6" y="146" width="7" height="9" rx="1" /><rect class="off" x="265.2" y="146" width="7" height="9" rx="1" /><rect class="off" x="274.8" y="146" width="7" height="9" rx="1" /><rect class="off" x="284.4" y="146" width="7" height="9" rx="1" /><rect class="off" x="294.0" y="146" width="7" height="9" rx="1" /><rect class="off" x="303.6" y="146" width="7" height="9" rx="1" />
  <text class="name" x="1" y="176">Swift</text>
  <rect class="on" x="102.0" y="168" width="7" height="9" rx="1" /><rect class="on" x="111.6" y="168" width="7" height="9" rx="1" /><rect class="on" x="121.2" y="168" width="7" height="9" rx="1" /><rect class="on" x="130.8" y="168" width="7" height="9" rx="1" /><rect class="on" x="140.4" y="168" width="7" height="9" rx="1" /><rect class="off" x="150.0" y="168" width="7" height="9" rx="1" /><rect class="off" x="159.6" y="168" width="7" height="9" rx="1" /><rect class="off" x="169.2" y="168" width="7" height="9" rx="1" /><rect class="off" x="178.8" y="168" width="7" height="9" rx="1" /><rect class="off" x="188.4" y="168" width="7" height="9" rx="1" /><rect class="off" x="198.0" y="168" width="7" height="9" rx="1" /><rect class="off" x="207.6" y="168" width="7" height="9" rx="1" /><rect class="off" x="217.2" y="168" width="7" height="9" rx="1" /><rect class="off" x="226.8" y="168" width="7" height="9" rx="1" /><rect class="off" x="236.4" y="168" width="7" height="9" rx="1" /><rect class="off" x="246.0" y="168" width="7" height="9" rx="1" /><rect class="off" x="255.6" y="168" width="7" height="9" rx="1" /><rect class="off" x="265.2" y="168" width="7" height="9" rx="1" /><rect class="off" x="274.8" y="168" width="7" height="9" rx="1" /><rect class="off" x="284.4" y="168" width="7" height="9" rx="1" /><rect class="off" x="294.0" y="168" width="7" height="9" rx="1" /><rect class="off" x="303.6" y="168" width="7" height="9" rx="1" />
  <text class="name" x="1" y="198">C</text>
  <rect class="on" x="102.0" y="190" width="7" height="9" rx="1" /><rect class="on" x="111.6" y="190" width="7" height="9" rx="1" /><rect class="on" x="121.2" y="190" width="7" height="9" rx="1" /><rect class="on" x="130.8" y="190" width="7" height="9" rx="1" /><rect class="off" x="140.4" y="190" width="7" height="9" rx="1" /><rect class="off" x="150.0" y="190" width="7" height="9" rx="1" /><rect class="off" x="159.6" y="190" width="7" height="9" rx="1" /><rect class="off" x="169.2" y="190" width="7" height="9" rx="1" /><rect class="off" x="178.8" y="190" width="7" height="9" rx="1" /><rect class="off" x="188.4" y="190" width="7" height="9" rx="1" /><rect class="off" x="198.0" y="190" width="7" height="9" rx="1" /><rect class="off" x="207.6" y="190" width="7" height="9" rx="1" /><rect class="off" x="217.2" y="190" width="7" height="9" rx="1" /><rect class="off" x="226.8" y="190" width="7" height="9" rx="1" /><rect class="off" x="236.4" y="190" width="7" height="9" rx="1" /><rect class="off" x="246.0" y="190" width="7" height="9" rx="1" /><rect class="off" x="255.6" y="190" width="7" height="9" rx="1" /><rect class="off" x="265.2" y="190" width="7" height="9" rx="1" /><rect class="off" x="274.8" y="190" width="7" height="9" rx="1" /><rect class="off" x="284.4" y="190" width="7" height="9" rx="1" /><rect class="off" x="294.0" y="190" width="7" height="9" rx="1" /><rect class="off" x="303.6" y="190" width="7" height="9" rx="1" />
  <text class="name" x="1" y="220">Objective-C</text>
  <rect class="on" x="102.0" y="212" width="7" height="9" rx="1" /><rect class="on" x="111.6" y="212" width="7" height="9" rx="1" /><rect class="on" x="121.2" y="212" width="7" height="9" rx="1" /><rect class="on" x="130.8" y="212" width="7" height="9" rx="1" /><rect class="off" x="140.4" y="212" width="7" height="9" rx="1" /><rect class="off" x="150.0" y="212" width="7" height="9" rx="1" /><rect class="off" x="159.6" y="212" width="7" height="9" rx="1" /><rect class="off" x="169.2" y="212" width="7" height="9" rx="1" /><rect class="off" x="178.8" y="212" width="7" height="9" rx="1" /><rect class="off" x="188.4" y="212" width="7" height="9" rx="1" /><rect class="off" x="198.0" y="212" width="7" height="9" rx="1" /><rect class="off" x="207.6" y="212" width="7" height="9" rx="1" /><rect class="off" x="217.2" y="212" width="7" height="9" rx="1" /><rect class="off" x="226.8" y="212" width="7" height="9" rx="1" /><rect class="off" x="236.4" y="212" width="7" height="9" rx="1" /><rect class="off" x="246.0" y="212" width="7" height="9" rx="1" /><rect class="off" x="255.6" y="212" width="7" height="9" rx="1" /><rect class="off" x="265.2" y="212" width="7" height="9" rx="1" /><rect class="off" x="274.8" y="212" width="7" height="9" rx="1" /><rect class="off" x="284.4" y="212" width="7" height="9" rx="1" /><rect class="off" x="294.0" y="212" width="7" height="9" rx="1" /><rect class="off" x="303.6" y="212" width="7" height="9" rx="1" />
  <text class="name" x="1" y="242">C++</text>
  <rect class="on" x="102.0" y="234" width="7" height="9" rx="1" /><rect class="on" x="111.6" y="234" width="7" height="9" rx="1" /><rect class="off" x="121.2" y="234" width="7" height="9" rx="1" /><rect class="off" x="130.8" y="234" width="7" height="9" rx="1" /><rect class="off" x="140.4" y="234" width="7" height="9" rx="1" /><rect class="off" x="150.0" y="234" width="7" height="9" rx="1" /><rect class="off" x="159.6" y="234" width="7" height="9" rx="1" /><rect class="off" x="169.2" y="234" width="7" height="9" rx="1" /><rect class="off" x="178.8" y="234" width="7" height="9" rx="1" /><rect class="off" x="188.4" y="234" width="7" height="9" rx="1" /><rect class="off" x="198.0" y="234" width="7" height="9" rx="1" /><rect class="off" x="207.6" y="234" width="7" height="9" rx="1" /><rect class="off" x="217.2" y="234" width="7" height="9" rx="1" /><rect class="off" x="226.8" y="234" width="7" height="9" rx="1" /><rect class="off" x="236.4" y="234" width="7" height="9" rx="1" /><rect class="off" x="246.0" y="234" width="7" height="9" rx="1" /><rect class="off" x="255.6" y="234" width="7" height="9" rx="1" /><rect class="off" x="265.2" y="234" width="7" height="9" rx="1" /><rect class="off" x="274.8" y="234" width="7" height="9" rx="1" /><rect class="off" x="284.4" y="234" width="7" height="9" rx="1" /><rect class="off" x="294.0" y="234" width="7" height="9" rx="1" /><rect class="off" x="303.6" y="234" width="7" height="9" rx="1" />
</svg>
